<?xml version="1.0" standalone="no"?>
<!DOCTYPE svg PUBLIC "-//W3C//DTD SVG 20010904//EN"
 "http://www.w3.org/TR/2001/REC-SVG-20010904/DTD/svg10.dtd">
<svg version="1.0" xmlns="http://www.w3.org/2000/svg"
 width="2048.000000pt" height="1536.000000pt" viewBox="0 0 2048.000000 1536.000000"
 preserveAspectRatio="xMidYMid meet">
<metadata>
Created by potrace 1.13, written by Peter Selinger 2001-2015
</metadata>
<g transform="translate(0.000000,1536.000000) scale(0.100000,-0.100000)"
fill="#000000" stroke="none">
<path d="M16707 9786 c-34 -34 -34 -46 -1 -46 42 0 84 -30 84 -61 0 -15 7 -32
15 -39 8 -7 15 -17 15 -23 0 -6 6 -18 14 -26 11 -12 12 -28 6 -67 -5 -27 -6
-75 -2 -105 3 -30 6 -109 6 -176 1 -121 1 -123 29 -153 16 -16 37 -30 46 -30
38 0 76 -69 91 -165 10 -63 33 -144 60 -210 15 -35 22 -78 30 -180 5 -55 13
-124 19 -152 10 -55 100 -253 126 -279 8 -9 15 -23 15 -31 0 -9 6 -24 13 -32
43 -51 67 -294 71 -706 3 -274 -9 -458 -36 -550 -25 -86 -29 -90 -92 -120 -54
-25 -86 -66 -86 -107 0 -41 17 -48 120 -48 87 0 98 2 117 23 36 41 62 106 69
174 6 61 11 72 46 108 l38 40 1 110 c0 104 15 243 38 365 12 63 29 268 37 450
4 75 11 133 19 145 12 20 66 38 154 51 25 4 56 13 70 21 14 7 38 13 53 13 15
0 55 14 90 30 60 29 75 37 116 60 9 6 27 14 38 19 12 5 37 22 55 38 19 15 42
33 51 38 10 6 64 42 120 80 110 75 134 90 158 101 8 3 33 15 56 25 40 19 134
24 182 11 56 -17 181 -158 222 -252 5 -14 22 -45 36 -70 33 -59 29 -100 -11
-119 -42 -20 -71 -43 -142 -113 -35 -34 -63 -70 -63 -79 0 -10 -4 -20 -9 -23
-14 -9 -44 -111 -39 -132 5 -18 5 -18 12 1 25 67 54 111 115 172 97 97 188
138 221 98 7 -9 23 -38 36 -66 30 -64 70 -121 134 -189 28 -30 57 -62 64 -70
68 -80 313 -280 344 -280 6 0 12 -4 12 -10 0 -5 21 -21 48 -37 40 -23 83 -54
152 -111 8 -7 32 -26 52 -43 20 -17 40 -40 44 -52 3 -12 12 -29 19 -37 15 -18
53 -150 67 -238 18 -107 2 -159 -56 -187 -28 -13 -70 -98 -61 -124 10 -33 79
-52 174 -49 l84 3 25 45 c21 39 24 58 23 136 0 50 -5 111 -10 135 -6 24 -11
72 -11 107 0 34 -7 79 -15 99 -8 19 -15 65 -15 102 0 36 -6 85 -13 108 -13 42
-75 113 -100 113 -16 0 -359 352 -369 379 -3 10 -11 22 -17 25 -19 12 -61 108
-61 140 0 18 -4 36 -10 42 -5 5 -12 32 -15 59 -7 56 -22 121 -36 147 -5 10 -9
37 -9 60 0 24 -7 56 -15 72 -8 15 -15 49 -15 75 0 26 -7 56 -15 67 -8 10 -15
29 -15 42 0 12 -4 30 -9 40 -6 9 -12 28 -15 42 -3 14 -13 34 -23 45 -10 11
-30 38 -46 61 -52 77 -269 274 -302 274 -6 0 -20 9 -29 19 -17 19 -228 127
-291 149 -16 6 -57 14 -90 18 -33 4 -63 12 -67 18 -4 7 -87 12 -239 14 -196 4
-241 2 -295 -13 -52 -14 -95 -16 -246 -13 l-183 4 -105 55 c-70 37 -106 62
-109 75 -2 10 -7 21 -10 24 -12 8 -41 72 -41 90 0 9 -7 25 -15 36 -8 10 -15
33 -15 50 0 16 -4 34 -9 40 -5 5 -12 29 -15 54 -5 38 -3 49 14 68 11 12 25 22
31 22 6 0 17 7 25 15 9 8 31 15 49 15 19 0 37 5 40 10 11 18 53 11 69 -12 21
-30 30 -16 16 24 -17 50 -122 128 -171 128 -21 0 -41 5 -44 10 -3 6 -30 10
-60 10 -30 0 -57 -4 -60 -10 -7 -12 -95 -14 -95 -2 0 11 -69 32 -106 32 -46 0
-73 11 -79 31 -11 33 -60 50 -164 56 -96 6 -98 5 -124 -21z"/>
<path d="M3850 9773 c-35 -4 -53 -13 -87 -44 -37 -34 -49 -39 -91 -39 -28 0
-64 -8 -87 -20 -47 -24 -61 -25 -110 -5 -34 15 -44 14 -131 -4 -89 -18 -97
-22 -148 -71 -47 -45 -73 -90 -59 -104 3 -3 15 6 27 20 l21 25 65 -17 c36 -9
72 -22 81 -30 8 -8 20 -14 26 -14 37 0 57 -86 28 -124 -8 -11 -15 -37 -15 -58
0 -21 -4 -38 -10 -38 -5 0 -10 -5 -10 -11 0 -5 -12 -36 -27 -67 -15 -31 -30
-68 -33 -82 -3 -14 -14 -26 -25 -29 -11 -2 -22 -7 -25 -11 -7 -10 -96 -50
-111 -50 -7 0 -21 -8 -32 -17 -16 -15 -45 -18 -189 -21 -97 -3 -201 0 -242 7
-142 22 -164 23 -336 22 -173 -2 -196 -4 -235 -21 -11 -5 -46 -12 -77 -15 -32
-4 -60 -11 -63 -16 -4 -5 -16 -9 -29 -9 -21 0 -203 -88 -235 -113 -16 -13 -49
-33 -76 -45 -43 -20 -295 -264 -295 -287 0 -5 -10 -21 -23 -35 -32 -34 -57
-88 -57 -120 0 -15 -7 -33 -15 -40 -10 -8 -15 -30 -15 -64 0 -29 -5 -57 -10
-62 -6 -6 -15 -33 -20 -60 -16 -87 -22 -108 -36 -141 -8 -17 -14 -53 -14 -81
0 -27 -7 -63 -15 -78 -8 -16 -15 -41 -15 -55 0 -45 -58 -144 -125 -214 -36
-37 -65 -71 -65 -76 0 -15 -216 -226 -248 -243 -35 -18 -78 -58 -105 -96 -13
-19 -17 -46 -17 -115 -1 -63 -5 -96 -15 -109 -8 -11 -15 -41 -15 -66 0 -25 -5
-51 -10 -56 -16 -16 -18 -336 -2 -341 6 -3 12 -18 12 -33 0 -41 24 -50 111
-44 156 11 196 37 162 106 -20 42 -52 78 -70 78 -18 0 -40 38 -48 83 -7 42 18
183 42 229 7 15 13 40 13 56 0 16 7 35 15 42 8 7 15 18 15 26 0 15 55 72 115
121 103 81 119 93 129 93 6 0 26 14 44 30 18 17 37 30 42 30 10 0 96 57 134
90 43 37 177 162 201 187 120 127 167 188 205 266 29 61 35 67 63 67 81 0 222
-118 281 -235 26 -51 36 -63 36 -45 0 29 -20 88 -49 145 -33 65 -148 175 -212
202 -22 9 -29 19 -29 39 0 28 35 109 51 120 5 3 9 13 9 22 0 22 79 135 131
189 56 57 94 73 173 73 66 0 123 -20 201 -70 17 -11 44 -27 60 -36 17 -9 48
-31 70 -49 36 -28 68 -50 116 -80 10 -5 32 -22 51 -37 43 -35 246 -138 270
-138 10 0 44 -9 75 -20 32 -11 71 -20 87 -20 28 0 84 -14 115 -29 24 -12 31
-55 41 -271 13 -250 25 -377 39 -393 5 -7 12 -66 15 -132 14 -304 13 -298 57
-341 37 -36 39 -41 39 -99 0 -38 5 -68 15 -81 8 -10 15 -26 15 -35 0 -8 13
-30 29 -48 l28 -32 104 3 c101 3 104 4 107 27 8 55 -25 106 -80 122 -52 15
-63 28 -91 116 -27 81 -28 87 -32 395 -6 460 16 752 63 849 12 25 22 50 22 56
0 6 6 16 13 22 8 6 37 57 65 114 59 117 82 211 82 327 0 43 5 82 10 85 6 3 10
21 10 39 0 17 4 36 9 41 14 16 54 151 66 220 15 96 39 138 91 160 66 28 76 48
76 170 0 222 5 354 14 367 21 29 44 77 44 90 0 24 34 48 68 48 42 0 47 14 17
44 -23 23 -33 26 -93 24 -37 -1 -87 -3 -112 -5z"/>
<path d="M4858 9016 c-10 -7 -18 -23 -18 -34 0 -11 -4 -23 -10 -27 -13 -8 9
-54 29 -59 9 -2 34 -7 56 -11 113 -17 134 -41 135 -153 0 -45 -4 -90 -10 -100
-10 -19 -29 -96 -36 -152 -3 -19 -9 -44 -15 -55 -5 -11 -13 -40 -18 -65 -5
-25 -18 -81 -29 -125 -20 -82 -36 -149 -52 -220 -22 -98 -79 -325 -90 -360 -5
-16 -12 -50 -15 -75 -4 -25 -10 -54 -15 -65 -9 -20 -23 -79 -39 -160 -14 -71
-61 -160 -97 -185 -38 -25 -135 -60 -169 -60 -42 0 -94 -76 -79 -114 5 -13
1232 -13 1324 -1 535 70 1007 445 1134 900 67 241 55 497 -31 670 -61 122
-180 265 -257 307 -99 55 -138 73 -204 94 -175 58 -177 58 -852 61 -516 2
-628 1 -642 -11z m1097 -137 c133 -24 225 -93 286 -212 60 -118 94 -274 85
-397 -17 -259 -62 -440 -154 -630 -119 -244 -285 -410 -478 -476 -71 -25 -93
-28 -222 -28 -139 -1 -144 0 -163 23 -10 13 -19 37 -19 55 0 28 50 251 161
711 22 94 56 233 74 310 138 579 141 586 192 623 45 32 135 40 238 21z"/>
<path d="M14303 8615 c-73 -12 -103 -27 -103 -51 0 -8 -4 -22 -10 -32 -5 -9
-25 -66 -45 -126 -53 -161 -34 -146 -188 -146 l-132 0 -22 -33 c-14 -19 -23
-48 -23 -69 0 -68 0 -68 131 -68 65 0 119 -3 119 -7 0 -5 -43 -134 -96 -288
-202 -594 -202 -592 -184 -685 14 -74 55 -128 121 -162 145 -73 300 -37 524
121 116 82 201 156 237 205 l28 40 -32 33 c-49 50 -72 45 -161 -37 -89 -80
-145 -112 -190 -108 -30 3 -32 6 -35 47 -2 25 1 54 6 65 6 12 42 120 82 241
39 121 75 229 80 240 5 11 23 63 40 115 17 52 38 114 47 138 l16 42 157 0 157
0 24 44 c19 37 22 50 13 83 l-9 38 -130 3 c-71 1 -135 4 -142 7 -13 4 -7 27
51 190 44 124 45 143 9 150 -16 4 -47 10 -70 16 -55 12 -180 10 -270 -6z"/>
<path d="M7810 8330 c-30 -4 -77 -13 -105 -20 -54 -13 -223 -90 -246 -112 -8
-8 -30 -24 -50 -36 -20 -12 -65 -53 -100 -90 -158 -167 -244 -351 -259 -552
-11 -166 -2 -241 43 -332 62 -125 161 -204 308 -243 85 -22 319 -17 419 9 166
45 354 179 472 336 110 146 181 359 182 545 1 154 -35 255 -127 353 -97 102
-193 140 -367 146 -63 3 -140 1 -170 -4z m208 -167 c23 -25 23 -31 19 -137 -8
-165 -39 -295 -124 -516 -82 -211 -168 -348 -257 -407 -80 -54 -154 -40 -172
33 -13 52 5 227 35 347 76 293 183 526 297 640 80 80 153 94 202 40z"/>
<path d="M9248 8312 c-31 -9 -60 -20 -64 -24 -4 -5 -14 -8 -23 -8 -29 0 -187
-99 -242 -152 -99 -95 -145 -186 -169 -334 -13 -82 2 -179 38 -249 22 -44 97
-120 150 -150 17 -11 32 -22 32 -26 0 -4 -30 -14 -67 -23 -95 -24 -161 -57
-212 -108 -52 -52 -69 -84 -77 -142 -12 -85 35 -154 139 -206 26 -13 47 -27
47 -30 0 -4 -19 -10 -42 -14 -126 -19 -243 -75 -291 -138 -65 -85 -73 -178
-25 -276 27 -54 44 -73 103 -117 75 -55 141 -89 216 -111 175 -52 430 -64 577
-26 79 21 101 29 198 72 71 32 179 106 236 161 70 70 105 130 123 215 12 60
12 77 -1 134 -10 44 -25 79 -45 104 -51 61 -214 147 -354 186 -22 6 -110 29
-195 51 -215 56 -275 95 -236 154 21 32 62 42 197 49 277 14 447 77 580 216
94 98 129 190 129 338 l0 94 104 -7 c95 -7 105 -6 115 11 10 18 12 17 36 -13
15 -18 33 -33 41 -33 8 0 41 28 74 62 33 33 72 69 87 79 36 24 70 24 75 2 4
-20 -9 -98 -22 -128 -4 -11 -16 -45 -25 -75 -10 -30 -24 -70 -31 -88 -8 -18
-14 -41 -14 -51 0 -10 -3 -21 -6 -24 -4 -4 -57 -158 -119 -344 -75 -223 -110
-342 -104 -349 11 -14 48 -21 157 -34 81 -9 204 1 269 23 35 12 38 15 78 132
22 66 43 125 46 130 4 6 9 24 13 40 12 49 150 318 228 444 87 139 176 252 223
281 22 13 47 20 67 18 28 -3 35 -9 45 -40 10 -30 9 -48 -3 -95 -8 -32 -21 -72
-29 -90 -8 -17 -15 -35 -15 -40 0 -5 -15 -41 -34 -79 -18 -38 -37 -80 -41 -94
-4 -14 -22 -57 -40 -95 -18 -39 -36 -82 -40 -95 -4 -14 -11 -30 -15 -35 -5 -6
-23 -53 -40 -104 -53 -161 -44 -247 31 -304 52 -38 198 -49 302 -22 60 15 185
74 209 98 7 8 24 19 36 26 36 19 158 128 188 166 l26 34 -22 35 c-34 56 -54
56 -114 -2 -56 -55 -125 -96 -153 -90 -14 3 -18 13 -17 45 1 39 7 60 54 168
10 22 34 83 54 135 21 52 41 104 46 115 28 60 91 225 106 274 9 31 17 94 17
141 2 113 -22 159 -108 210 -59 34 -62 35 -170 35 -102 0 -114 -2 -170 -30
-33 -16 -86 -47 -117 -68 -64 -43 -223 -198 -270 -263 -17 -24 -33 -42 -35
-41 -2 2 6 30 17 63 22 68 24 101 7 164 -33 125 -115 180 -267 180 -90 0 -110
-5 -195 -46 -73 -36 -94 -52 -180 -136 -51 -48 -94 -88 -96 -88 -3 0 -3 18 -1
40 3 28 0 40 -9 41 -8 1 -81 1 -164 0 l-150 -2 -50 51 c-60 62 -110 93 -194
120 -84 26 -325 28 -413 2z m284 -139 c56 -50 48 -224 -19 -423 -19 -58 -89
-199 -112 -227 -36 -43 -92 -73 -137 -73 -35 0 -47 5 -68 31 -27 31 -29 45
-26 154 4 156 89 373 192 490 64 73 124 90 170 48z m-447 -1403 c272 -59 350
-86 402 -136 41 -38 43 -44 43 -96 0 -46 -5 -61 -28 -91 -88 -110 -181 -147
-371 -147 -185 0 -279 31 -349 116 -79 96 -59 254 41 320 43 28 107 51 147 53
14 1 66 -8 115 -19z"/>
<path d="M15615 8316 c-5 -2 -30 -10 -55 -17 -119 -36 -254 -124 -389 -253
-152 -147 -253 -307 -303 -483 -18 -63 -23 -104 -23 -208 0 -118 2 -135 24
-180 54 -111 144 -190 265 -234 60 -21 89 -25 181 -26 106 0 136 5 245 43 86
31 201 104 275 176 53 52 105 125 105 149 0 14 -51 67 -64 67 -5 0 -45 -35
-90 -77 -97 -92 -159 -128 -243 -142 -107 -17 -170 10 -211 93 -20 40 -23 61
-23 158 0 61 4 114 8 118 5 4 59 12 122 19 183 19 317 64 421 139 51 38 140
125 140 138 0 6 9 19 19 28 11 10 29 44 41 77 43 114 10 258 -77 340 -66 62
-94 72 -233 75 -69 2 -129 2 -135 0z m71 -194 c85 -57 1 -298 -140 -401 -60
-43 -170 -81 -188 -63 -34 34 77 321 158 409 46 50 135 79 170 55z"/>
<path d="M12815 8298 c-27 -5 -54 -13 -59 -19 -6 -5 -16 -9 -24 -9 -25 0 -136
-59 -215 -115 -160 -112 -363 -317 -466 -468 -41 -60 -105 -190 -120 -242 -37
-128 -32 -263 13 -360 31 -68 74 -111 144 -142 48 -23 64 -25 146 -21 84 3 99
7 177 46 89 44 175 117 288 247 29 33 50 51 46 40 -13 -39 -25 -118 -25 -164
0 -68 27 -111 91 -144 51 -27 59 -29 159 -25 98 4 111 7 184 42 44 22 108 59
143 84 86 59 213 184 213 208 0 26 -43 74 -67 74 -11 0 -51 -27 -88 -60 -68
-60 -97 -75 -132 -68 -39 8 -14 92 93 326 19 40 34 76 34 79 0 4 9 25 19 47
41 87 91 198 91 203 0 2 14 35 31 71 48 102 139 315 139 324 0 32 -171 63
-298 55 -121 -8 -135 -14 -162 -81 -12 -31 -25 -56 -29 -56 -3 1 -15 20 -26
43 -39 82 -150 114 -300 85z m232 -198 c24 -45 -4 -156 -70 -280 -52 -98 -54
-102 -112 -190 -27 -41 -54 -82 -60 -91 -64 -103 -257 -310 -317 -340 -45 -23
-70 -24 -108 -4 -21 11 -30 24 -32 43 -5 101 26 190 124 349 132 212 363 463
483 523 50 25 76 22 92 -10z"/>
</g>
</svg>
